<?xml version="1.0" encoding="utf-8"?>
<!-- Uploaded to: SVG Repo, www.svgrepo.com, Generator: SVG Repo Mixer Tools -->
<svg fill="#000000" width="800px" height="800px" viewBox="-9.5 0 32 32" version="1.1" xmlns="http://www.w3.org/2000/svg">
<title>unlock</title>
<path d="M11.2 14.96h-7.12v-3.28c0-1.44 1.16-2.64 2.64-2.64 1.44 0 2.64 1.16 2.64 2.64 0 0.48 0.36 0.84 0.84 0.84s0.84-0.36 0.84-0.84c0-2.36-1.92-4.32-4.32-4.32s-4.32 1.92-4.32 4.32v3.28h-0.2c-1.2 0-2.2 1-2.2 2.2v5.28c0 1.2 1 2.2 2.2 2.2h9c1.2 0 2.2-1 2.2-2.2v-5.28c0.040-1.24-0.96-2.2-2.2-2.2zM11.68 22.44c0 0.28-0.24 0.52-0.52 0.52h-8.96c-0.28 0-0.52-0.24-0.52-0.52v-5.28c0-0.28 0.24-0.52 0.52-0.52h9c0.28 0 0.52 0.24 0.52 0.52l-0.040 5.28z"></path>
</svg>